<?xml version="1.0" encoding="UTF-8"?>
<svg xmlns="http://www.w3.org/2000/svg" viewBox="0 0 500 500">
  <circle cx="250" cy="250" r="240" fill="#00BFFF"/>
  <path d="M250 50c110.457 0 200 89.543 200 200s-89.543 200-200 200S50 360.457 50 250 139.543 50 250 50" fill="#00BFFF"/>
  <g transform="translate(100,100) scale(0.6)">
    <path d="M250 100c-20 0-40 5-60 15-20 10-35 25-45 45-10 20-15 40-15 60 0 30 10 55 30 75 20 20 45 30 75 30 30 0 55-10 75-30 20-20 30-45 30-75 0-20-5-40-15-60-10-20-25-35-45-45-20-10-40-15-60-15z" fill="white"/>
    <path d="M180 220c-5-5-10-5-15 0-5 5-5 10 0 15l40 40c5 5 10 5 15 0l80-80c5-5 5-10 0-15-5-5-10-5-15 0l-65 65-40-25z" fill="#FF0000"/>
  </g>
</svg>
